<?xml version="1.0" encoding="UTF-8" standalone="no"?>
<!-- Created with Inkscape (http://www.inkscape.org/) -->

<svg
   xmlns:dc="http://purl.org/dc/elements/1.1/"
   xmlns:cc="http://creativecommons.org/ns#"
   xmlns:rdf="http://www.w3.org/1999/02/22-rdf-syntax-ns#"
   xmlns:svg="http://www.w3.org/2000/svg"
   xmlns="http://www.w3.org/2000/svg"
   xmlns:xlink="http://www.w3.org/1999/xlink"
   xmlns:sodipodi="http://sodipodi.sourceforge.net/DTD/sodipodi-0.dtd"
   xmlns:inkscape="http://www.inkscape.org/namespaces/inkscape"
   width="509.57144"
   height="607.12744"
   id="svg2"
   version="1.1"
   inkscape:version="0.48.4 r9939"
   sodipodi:docname="bman_v3.svg">
  <defs
     id="defs4">
    <linearGradient
       id="linearGradient3834">
      <stop
         style="stop-color:#ffccaa;stop-opacity:1;"
         offset="0"
         id="stop3836" />
      <stop
         id="stop3842"
         offset="0.93333334"
         style="stop-color:#e7b899;stop-opacity:1;" />
      <stop
         style="stop-color:#9e7f69;stop-opacity:1;"
         offset="1"
         id="stop3838" />
    </linearGradient>
    <radialGradient
       gradientUnits="userSpaceOnUse"
       r="254.78572"
       fy="520.93359"
       fx="340"
       cy="520.93359"
       cx="340"
       id="radialGradient3929"
       xlink:href="#linearGradient3923"
       inkscape:collect="always" />
    <linearGradient
       id="linearGradient3923">
      <stop
         id="stop3925"
         offset="0"
         style="stop-color:#ffffff;stop-opacity:1;" />
      <stop
         style="stop-color:#f9f9f9;stop-opacity:1;"
         offset="0.94074076"
         id="stop3931" />
      <stop
         id="stop3927"
         offset="1"
         style="stop-color:#cfcfcf;stop-opacity:1;" />
    </linearGradient>
    <linearGradient
       id="linearGradient4118">
      <stop
         id="stop4122"
         offset="0"
         style="stop-color:#f9f9f9;stop-opacity:1;" />
      <stop
         style="stop-color:#cfcfcf;stop-opacity:1;"
         offset="1"
         id="stop4124" />
    </linearGradient>
    <linearGradient
       inkscape:collect="always"
       xlink:href="#linearGradient4118"
       id="linearGradient3032"
       gradientUnits="userSpaceOnUse"
       gradientTransform="translate(-44.527932,193.42489)"
       x1="403.78174"
       y1="133.57434"
       x2="386.77222"
       y2="65.498108" />
    <radialGradient
       inkscape:collect="always"
       xlink:href="#linearGradient3834"
       id="radialGradient3840"
       cx="459.11432"
       cy="587.69202"
       fx="459.11432"
       fy="587.69202"
       r="227.7894"
       gradientTransform="matrix(1,0,0,0.82926831,0,100.33765)"
       gradientUnits="userSpaceOnUse" />
  </defs>
  <sodipodi:namedview
     id="base"
     pagecolor="#ffffff"
     bordercolor="#666666"
     borderopacity="1.0"
     inkscape:pageopacity="0.0"
     inkscape:pageshadow="2"
     inkscape:zoom="0.7"
     inkscape:cx="-77.355134"
     inkscape:cy="293.11343"
     inkscape:document-units="px"
     inkscape:current-layer="layer1"
     showgrid="false"
     fit-margin-top="0"
     fit-margin-left="0"
     fit-margin-right="0"
     fit-margin-bottom="0"
     inkscape:window-width="1920"
     inkscape:window-height="1018"
     inkscape:window-x="1272"
     inkscape:window-y="-8"
     inkscape:window-maximized="1" />
  <metadata
     id="metadata7">
    <rdf:RDF>
      <cc:Work
         rdf:about="">
        <dc:format>image/svg+xml</dc:format>
        <dc:type
           rdf:resource="http://purl.org/dc/dcmitype/StillImage" />
        <dc:title></dc:title>
      </cc:Work>
    </rdf:RDF>
  </metadata>
  <g
     inkscape:label="Ebene 1"
     inkscape:groupmode="layer"
     id="layer1"
     transform="translate(-95.214279,-228.79847)">
    <path
       sodipodi:type="arc"
       style="fill:url(#radialGradient3929);fill-opacity:1;fill-rule:evenodd;stroke:#000000;stroke-width:1px;stroke-linecap:butt;stroke-linejoin:miter;stroke-opacity:1"
       id="path2987"
       sodipodi:cx="340"
       sodipodi:cy="520.93359"
       sodipodi:rx="254.28572"
       sodipodi:ry="254.28572"
       d="m 594.28572,520.93359 c 0,140.43813 -113.84759,254.28572 -254.28572,254.28572 -140.43813,0 -254.285721,-113.84759 -254.285721,-254.28572 0,-140.43812 113.847591,-254.28572 254.285721,-254.28572 140.43813,0 254.28572,113.8476 254.28572,254.28572 z"
       transform="translate(10,60.20658)" />
    <path
       sodipodi:type="arc"
       style="fill:url(#radialGradient3840);fill-opacity:1"
       id="path3757"
       sodipodi:cx="459.11432"
       sodipodi:cy="587.69202"
       sodipodi:rx="227.7894"
       sodipodi:ry="188.89853"
       d="m 686.90372,587.69202 a 227.7894,188.89853 0 1 1 -455.5788,0 227.7894,188.89853 0 1 1 455.5788,0 z"
       transform="matrix(1,0,0,0.81283423,-107.198,129.79631)" />
    <path
       style="fill:url(#linearGradient3032);fill-opacity:1;stroke:#000000;stroke-opacity:1"
       inkscape:transform-center-x="-0.1138732"
       inkscape:transform-center-y="-6.6217927"
       d="m 305.52296,362.29287 44.8092,-70.35974 -35.28677,-31.31733 -48.50105,-6.67447 69.81575,1.31065 56.60147,25.95351 1.12807,71.52058"
       id="path4083"
       inkscape:connector-curvature="0"
       sodipodi:nodetypes="ccccccc" />
    <path
       sodipodi:type="arc"
       style="fill:#deaa87;fill-opacity:0.55769228;stroke:#000000;stroke-width:1;stroke-opacity:0"
       id="path3044"
       sodipodi:cx="358.57144"
       sodipodi:cy="708.79077"
       sodipodi:rx="31.428572"
       sodipodi:ry="5"
       d="m 390.00001,708.79077 a 31.428572,5 0 1 1 -62.85714,0 31.428572,5 0 1 1 62.85714,0 z"
       transform="matrix(0.98609379,-0.16618977,0.16618977,0.98609379,-100.80741,47.447501)" />
    <path
       sodipodi:type="arc"
       style="fill:#ffffff"
       id="path3759"
       sodipodi:cx="457.59909"
       sodipodi:cy="408.89502"
       sodipodi:rx="64.649765"
       sodipodi:ry="55.558392"
       d="m 522.24886,408.89502 a 64.649765,55.558392 0 1 1 -129.29953,0 64.649765,55.558392 0 1 1 129.29953,0 z"
       transform="matrix(0.95452377,0,0,0.77659187,3.5443071,260.18027)" />
    <path
       sodipodi:type="arc"
       style="fill:#000000"
       id="path3761"
       sodipodi:cx="500.53058"
       sodipodi:cy="426.0676"
       sodipodi:rx="55.053314"
       sodipodi:ry="46.467018"
       d="m 555.58389,426.0676 a 55.053314,46.467018 0 1 1 -110.10663,0 55.053314,46.467018 0 1 1 110.10663,0 z"
       transform="matrix(0.95452377,0,0,0.77659187,-41.988492,239.78388)" />
    <path
       inkscape:connector-curvature="0"
       style="fill:#333333;fill-opacity:0.72586826"
       d="m 435.16499,535.51673 c -2.74625,0 -5.44115,0.15872 -8.07371,0.43755 -1.82461,3.35381 -2.83989,6.99465 -2.83989,10.81122 0,16.4555 18.60398,29.79011 41.56557,29.79011 8.02364,0 15.52096,-1.62695 21.87414,-4.44846 0.004,-0.17044 0.0234,-0.33949 0.0234,-0.51048 0,-19.9297 -23.52718,-36.07994 -52.54957,-36.07994 z"
       id="path3761-7" />
    <path
       sodipodi:type="arc"
       style="fill:#f2f2f2;fill-opacity:0.55769228;stroke:#000000;stroke-width:1.51071453;stroke-opacity:0"
       id="path3046"
       sodipodi:cx="505"
       sodipodi:cy="566.64789"
       sodipodi:rx="16.428572"
       sodipodi:ry="17.142857"
       d="m 521.42857,566.64789 a 16.428572,17.142857 0 1 1 -32.85714,0 16.428572,17.142857 0 1 1 32.85714,0 z"
       transform="matrix(0.75104354,0,0,0.58340483,88.260836,230.87053)" />
    <path
       sodipodi:type="arc"
       style="fill:#ffffff"
       id="path3759-9"
       sodipodi:cx="457.59909"
       sodipodi:cy="408.89502"
       sodipodi:rx="64.649765"
       sodipodi:ry="55.558392"
       d="m 522.24886,408.89502 a 64.649765,55.558392 0 1 1 -129.29953,0 64.649765,55.558392 0 1 1 129.29953,0 z"
       transform="matrix(1.099055,0,0,1.3311372,-231.97435,48.840397)" />
    <path
       sodipodi:type="arc"
       style="fill:#000000"
       id="path3761-4"
       sodipodi:cx="500.53058"
       sodipodi:cy="426.0676"
       sodipodi:rx="55.053314"
       sodipodi:ry="46.467018"
       d="m 555.58389,426.0676 a 55.053314,46.467018 0 1 1 -110.10663,0 55.053314,46.467018 0 1 1 110.10663,0 z"
       transform="matrix(1.099055,0,0,1.3311372,-275.49309,13.879454)" />
    <path
       inkscape:connector-curvature="0"
       style="fill:#333333;fill-opacity:0.72586826"
       d="m 273.93918,520.06554 c -3.16208,0 -6.26503,0.27206 -9.29621,0.75 -2.10089,5.74868 -3.2699,11.98936 -3.2699,18.53125 0,28.20597 21.42095,51.0625 47.85931,51.0625 9.23855,0 17.8711,-2.78872 25.18626,-7.625 0.004,-0.29214 0.027,-0.5819 0.027,-0.875 0,-34.16101 -27.0896,-61.84375 -60.50648,-61.84375 z"
       id="path3761-7-7" />
    <path
       transform="matrix(0.86476439,0,0,1,-126.55457,-0.2857056)"
       sodipodi:type="arc"
       style="fill:#f2f2f2;fill-opacity:0.55769228;stroke:#000000;stroke-width:1.07535315;stroke-opacity:0"
       id="path3046-4"
       sodipodi:cx="505"
       sodipodi:cy="566.64789"
       sodipodi:rx="16.428572"
       sodipodi:ry="17.142857"
       d="m 521.42857,566.64789 a 16.428572,17.142857 0 1 1 -32.85714,0 16.428572,17.142857 0 1 1 32.85714,0 z" />
    <path
       style="fill:#000000;fill-opacity:1;stroke:#000000;stroke-width:0.80000001;stroke-miterlimit:4;stroke-opacity:0;stroke-dasharray:none"
       d="m 359.92268,553.4706 c -31.92224,-18.78057 -79.78855,-43.31948 -111.56998,-52.81122 -15.87107,-2.07489 -22.58484,3.16271 -37.18175,2.02162 35.62757,10.29867 66.05239,20.28532 119.2356,45.69294 14.98206,1.61565 14.53428,3.48122 29.51613,5.09666 z"
       id="path4022-3"
       inkscape:connector-curvature="0"
       sodipodi:nodetypes="ccccc" />
    <path
       style="fill:#000000;fill-opacity:1;stroke:#000000;stroke-width:0.80000007;stroke-miterlimit:4;stroke-opacity:0;stroke-dasharray:none"
       d="m 386.70466,549.57325 c 21.81981,-12.19784 54.09736,-26.93565 74.70126,-30.05028 9.96508,1.05859 13.43673,7.50441 22.50848,9.23053 -23.05579,3.15638 -42.88967,7.02087 -78.52669,21.57432 -9.36517,-1.33573 -9.31803,0.58133 -18.68305,-0.75457 z"
       id="path4022-3-6"
       inkscape:connector-curvature="0"
       sodipodi:nodetypes="ccccc" />
  </g>
</svg>
